<svg width="42" height="42" viewBox="0 0 42 42" fill="none" xmlns="http://www.w3.org/2000/svg">
<g clip-path="url(#clip0)">
<path d="M36.181 15.7535L35.8751 15.7501C31.6163 15.7501 27.7584 18.1084 25.8034 21.8331C24.5832 21.2871 23.251 21 21.8754 21C20.4927 21 19.1639 21.3083 17.9485 21.8572C17.6229 22.0042 17.4311 22.3498 17.4582 22.706C17.4811 23.0088 17.5005 23.3128 17.5005 23.6249C17.5005 25.051 17.2134 26.3584 16.6477 27.5103C16.4956 27.8204 16.1846 27.9999 15.8616 27.9999C15.7326 27.9999 15.601 27.9709 15.4771 27.9101C15.043 27.6974 14.8644 27.1727 15.0772 26.7395C15.5241 25.8286 15.7505 24.781 15.7505 23.6249C15.7505 22.9834 15.614 21.2853 15.5908 21.075C15.5079 20.3252 15.4054 19.5929 15.3069 18.909C15.3067 18.9073 15.3075 18.9057 15.3073 18.904C15.1443 17.769 14.9856 16.6666 14.9754 15.7491L19.3995 15.75C20.096 15.7501 20.764 15.4734 21.2566 14.9809L24.7565 11.481C25.7571 10.4804 25.7794 8.86627 24.8232 7.83836C25.2799 7.14439 25.3922 6.25584 25.0671 5.42102C24.8628 4.89644 24.4661 4.46743 23.9977 4.15522L21.9598 2.79697C21.0211 2.17133 19.9301 1.78866 18.8026 1.75478C16.1176 1.67398 13.5811 2.68221 11.6907 4.57259C8.33866 7.92474 5.70091 11.7631 3.84843 15.9816C1.61657 21.064 0.48521 24.8135 0.48521 27.1249C0.48521 28.4493 0.370696 29.5251 0.144294 30.3232C-0.339354 32.0279 0.421965 33.8462 1.99513 34.7451C8.29691 38.3459 15.4643 40.2496 22.7222 40.2496H23.9877C28.496 40.2496 32.9746 39.52 37.2497 38.089L37.8122 37.9007C40.3137 37.0634 42 34.7208 42 32.0828V21.8827C42 18.5878 39.3896 15.8381 36.181 15.7535Z" fill="url(#paint0_linear)"/>
</g>
<defs>
<linearGradient id="paint0_linear" x1="21" y1="1.75027" x2="21" y2="40.2496" gradientUnits="userSpaceOnUse">
<stop stop-color="#FCC73E"/>
<stop offset="1" stop-color="#AD2F07"/>
</linearGradient>
<clipPath id="clip0">
<rect width="42" height="42" fill="white"/>
</clipPath>
</defs>
</svg>
